<?xml version="1.0" encoding="UTF-8" standalone="no"?>
<svg
   width="400"
   height="200"
   version="1.1"
   id="svg54"
   sodipodi:docname="3DCoordSystAndRightHandRule.svg"
   inkscape:version="1.1.1 (3bf5ae0d25, 2021-09-20)"
   xmlns:inkscape="http://www.inkscape.org/namespaces/inkscape"
   xmlns:sodipodi="http://sodipodi.sourceforge.net/DTD/sodipodi-0.dtd"
   xmlns="http://www.w3.org/2000/svg"
   xmlns:svg="http://www.w3.org/2000/svg">
  <defs
     id="defs58" />
  <sodipodi:namedview
     id="namedview56"
     pagecolor="#ffffff"
     bordercolor="#666666"
     borderopacity="1.0"
     inkscape:pageshadow="2"
     inkscape:pageopacity="0.0"
     inkscape:pagecheckerboard="0"
     showgrid="false"
     inkscape:zoom="1.4175"
     inkscape:cx="171.07584"
     inkscape:cy="195.7672"
     inkscape:window-width="1600"
     inkscape:window-height="837"
     inkscape:window-x="-8"
     inkscape:window-y="-8"
     inkscape:window-maximized="1"
     inkscape:current-layer="g62" />
  <path
     d="m 7.7896474,81.627337 a 1,0.43649 0.28323 0 0 -0.045,0.0225 1,0.43649 0.28323 0 0 0.1624,0.61543 c 0.6875,0.24026 0.6325,0.22307 1.19,0.41882 0.037,0.0473 0.074,0.0962 0.074,0.0963 8e-4,5e-4 0.096,0.0556 0.1165,0.0644 0.02,0.009 0.032,0.0141 0.043,0.0188 v 0.002 c 0.046,0.0203 0.1105,0.0292 0.16,0.0481 0,0.002 -0.024,-0.0102 -0.016,-0.007 0.038,0.0167 0.1465,0.0463 0.28,0.0896 0.2638996,0.088 0.6607996,0.22315 1.1072996,0.37453 0.8946,0.30209 1.9924,0.67506 2.6904,0.90863 0.3488,0.11688 0.4891,0.1686 0.7261,0.23532 0.013,0.005 0.028,0.0121 0.068,0.016 0.013,0.005 0.026,0.0115 0.065,0.0146 0.038,0.003 0.1585,0.0243 0.159,0.0245 10e-5,7e-5 0.1433,-0.005 0.2755,-0.0103 10.944,3.2308 24.473,4.4424 37.436,2.9503 15.842,-1.8235 28.176,-7.2073 32.354,-14.123 4.1773,-6.9151 -0.4358,-14.314 -12.101,-19.406 a 1,0.43649 0.28323 0 0 -1.4121,-0.003 1,0.43649 0.28323 0 0 0.01,0.61646 c 11.16,4.8712 15.568,11.946 11.572,18.562 -3.9965,6.6157 -15.792,11.764 -30.948,13.509 -13.608,1.5664 -27.929,0.0769 -38.817,-3.7496 -0.9935,-0.35067 -1.6073,-0.57102 -3.7860996,-1.3338 a 1,0.43649 0.28323 0 0 -1.3598,0.0413 z"
     id="path28"
     style="fill-rule:evenodd;shape-rendering:auto;stroke:#800000;fill:#800000" />
  <path
     d="m 75.859647,59.027337 -5.92,-5.5467 12.707,2.5841 c -3.4915,0.22511 -6.2241,1.4254 -6.7871,2.9626 z"
     id="path30"
     style="fill-rule:evenodd;shape-rendering:auto;stroke:#800000;fill:#800000" />
  <path
     d="m 69.669647,53.357337 a 0.37505,0.1637 0.28323 0 0 -0.071,0.18399 l 5.918,5.545 a 0.37505,0.1637 0.28323 0 0 0.7118,-0.0399 c 0.5381,-1.4691 3.1424,-2.613 6.4718,-2.8277 a 0.37505,0.1637 0.28323 0 0 0.098,-0.31072 l -12.703,-2.5832 a 0.37505,0.1637 0.28323 0 0 -0.4245,0.0325 z m 1.0379,0.45307 11.095,2.2584 c -2.9316,0.33433 -5.1306,1.2972 -5.9242,2.586 z"
     id="path32"
     style="fill-rule:evenodd;shape-rendering:auto;stroke:#800000;fill:#800000" />
  <path
     d="m 34.509647,33.547337 5.1511,-14.006 5.1511,14.006 c -1.5206,-1.1188 -3.3211,-1.675 -5.1289,-1.6733 -1.8079,0.002 -5.1733,1.6733 -5.1733,1.6733 z"
     stroke="#000000"
     stroke-linejoin="round"
     stroke-width="0.44318"
     id="path36"
     style="fill:#800000;stroke:#800000" />
  <path
     d="M 39.659647,29.077337 V 141.12734"
     fill="#255e91"
     stroke="#000000"
     stroke-linecap="round"
     stroke-linejoin="round"
     stroke-width="2.2159"
     id="path38"
     style="fill:#800000;stroke:#800000" />
  <path
     d="m 18.099647,32.487337 q -0.2344,0 -0.2344,-0.27832 0,-0.14648 0.059,-0.20508 0.8057,-1.3916 1.9336,-2.6514 1.1426,-1.2744 2.5782,-2.5635 1.4502,-1.3037 2.9003,-2.6074 1.4649,-1.3037 2.3731,-2.3145 h -0.1172 q -0.6592,0 -1.9336,-0.4248 -1.2744,-0.42481 -2.0068,-0.42481 -0.791,0 -1.5381,0.35157 -0.7471,0.33691 -0.9522,1.0547 -0.044,0.21973 -0.2343,0.21973 h -0.3662 q -0.2344,0 -0.2344,-0.30762 v -0.0879 q 0.2344,-0.8789 0.7617,-1.6406 0.542,-0.76172 1.3184,-1.2305 0.791,-0.4834 1.6406,-0.4834 0.6006,0 0.9961,0.27832 0.3955,0.26367 0.9228,0.83496 0.5274,0.57129 0.8496,0.82031 0.337,0.24903 0.835,0.24903 0.6592,0 1.1719,-0.60059 0.5273,-0.60058 1.04,-1.4941 0.088,-0.0879 0.2198,-0.0879 h 0.3515 q 0.1026,0 0.1611,0.0732 0.073,0.0732 0.073,0.19043 0,0.10254 -0.059,0.19043 -0.8056,1.3916 -1.8896,2.6074 -1.0693,1.2012 -2.8125,2.7686 -1.7285,1.5527 -2.9297,2.6367 -1.1865,1.0693 -2.2266,2.2119 0.2344,-0.0586 0.6299,-0.0586 0.7325,0 1.9922,0.4248 1.2744,0.41016 1.9629,0.41016 0.7471,0 1.5088,-0.32227 0.7617,-0.32226 1.3184,-0.9082 0.5566,-0.58594 0.747,-1.3477 0.073,-0.20507 0.2344,-0.20507 h 0.3662 q 0.1172,0 0.1904,0.10253 0.073,0.0879 0.073,0.19043 0,0.0293 -0.029,0.0879 -0.2783,1.1426 -0.9668,2.1826 -0.6884,1.0254 -1.6992,1.6992 -0.9961,0.65918 -2.1386,0.65918 -0.5713,0 -0.9668,-0.26367 -0.3955,-0.26367 -0.9375,-0.83496 -0.5274,-0.58594 -0.8643,-0.83496 -0.3369,-0.26368 -0.8203,-0.26368 -1.4941,0 -2.6807,2.0947 -0.1025,0.10254 -0.2051,0.10254 z"
     id="path40"
     style="stroke:#800000;fill:#800000" />
  <path
     d="m 139.40965,171.49734 c 0.2946,0.41754 0.7245,0.74365 1.2894,0.97774 0.5478,0.22696 1.0437,0.11027 1.4864,-0.34865 0.4412,-0.46737 0.7509,-1.0439 0.9297,-1.7285 l 1.3504,-4.9838 c 0.2126,-0.89852 0.3234,-1.5216 0.334,-1.8729 0.015,-0.49625 -0.092,-0.97736 -0.3195,-1.4438 -0.2188,-0.46186 -0.5376,-0.7792 -0.9566,-0.95288 -0.534,-0.22136 -1.0427,-0.23232 -1.5269,-0.0325 -0.4851,0.1908 -0.9019,0.52409 -1.2506,1.0009 -0.3497,0.46904 -0.6057,0.98938 -0.7675,1.5614 -0.037,0.11494 -0.1087,0.15025 -0.2088,0.10879 l -0.3124,-0.12949 c -0.1333,-0.0553 -0.1955,-0.17621 -0.1864,-0.36263 v -0.0883 c 0.2022,-0.67381 0.5181,-1.277 0.9472,-1.81 0.4276,-0.54013 0.9339,-0.90756 1.5188,-1.1038 0.5915,-0.19235 1.2103,-0.15415 1.8577,0.11419 0.6147,0.25479 1.162,0.67563 1.6431,1.2638 0.4905,0.59315 0.8305,1.2668 1.0197,2.0223 0.3036,-0.49252 0.6817,-0.85404 1.1346,-1.0855 0.4597,-0.22744 0.9554,-0.23053 1.488,-0.01 0.3605,0.14945 0.7282,0.37937 1.1034,0.69018 0.3755,0.30135 0.6809,0.65644 0.9161,1.0657 0.2358,0.41018 0.3519,0.84976 0.3481,1.3193 0,0.51026 -0.1484,0.895 -0.4333,1.1533 -0.2773,0.25246 -0.6321,0.28944 -1.0639,0.11049 -0.274,-0.11356 -0.5008,-0.3121 -0.6803,-0.59525 -0.1791,-0.28268 -0.2661,-0.58132 -0.261,-0.8957 0.01,-0.42148 0.1324,-0.7385 0.3768,-0.95144 0.2519,-0.21896 0.5466,-0.28748 0.8847,-0.20596 -0.3007,-0.40771 -0.7179,-0.72197 -1.2518,-0.9433 -0.5422,-0.22471 -1.0204,-0.12546 -1.4359,0.29904 -0.4088,0.42969 -0.7051,0.97762 -0.8883,1.6449 l -1.2704,4.9656 c -0.2098,0.75987 -0.3225,1.4138 -0.3382,1.9596 -0.015,0.53739 0.095,1.0552 0.3315,1.553 0.246,0.4922 0.5789,0.82567 0.9983,0.99942 0.8216,0.34047 1.5617,0.20368 2.2176,-0.40769 0.6608,-0.61485 1.0985,-1.3999 1.315,-2.353 0.034,-0.10913 0.1043,-0.14183 0.2049,-0.1001 l 0.3165,0.13112 c 0.067,0.028 0.1219,0.0814 0.1634,0.16037 0.042,0.0687 0.062,0.13864 0.061,0.21049 0,0.0212 -0.01,0.0476 -0.023,0.083 -0.2591,1.1547 -0.7906,2.0655 -1.5981,2.7281 -0.8123,0.66701 -1.7224,0.79412 -2.7264,0.37809 -0.6437,-0.26674 -1.2214,-0.71862 -1.7319,-1.3544 -0.5003,-0.6409 -0.8451,-1.3635 -1.0346,-2.1662 -0.2937,0.50789 -0.6932,0.89537 -1.1981,1.1618 -0.4978,0.27077 -1.022,0.29264 -1.5713,0.065 -0.3775,-0.15645 -0.7643,-0.40178 -1.1599,-0.73567 -0.387,-0.3195 -0.6966,-0.69681 -0.9285,-1.1314 -0.2315,-0.43362 -0.3342,-0.90254 -0.3086,-1.4063 0.025,-0.49184 0.1877,-0.87807 0.4906,-1.1582 0.3082,-0.28727 0.6735,-0.34296 1.0968,-0.16754 0.288,0.11933 0.5246,0.32603 0.71,0.62043 0.1862,0.28469 0.2723,0.5957 0.258,0.93335 -0.019,0.44108 -0.1586,0.7756 -0.4161,1.0046 -0.2535,0.23144 -0.566,0.31259 -0.9374,0.24306 z"
     id="path42"
     style="stroke:#800000;fill:#800000" />
  <path
     d="m 137.52965,175.82734 12.391,10.985 -12.999,0.68769 c 1.1196,-1.3525 1.7284,-3.2251 1.8244,-5.2911 0.096,-2.0389 -1.2167,-6.3819 -1.2167,-6.3819 z"
     stroke="#000000"
     stroke-linejoin="round"
     stroke-width="0.44318"
     id="path44"
     style="fill:#800000;stroke:#800000" />
  <path
     d="M 141.27965,183.22734 39.659647,141.13034"
     fill="#255e91"
     stroke="#000000"
     stroke-linecap="round"
     stroke-linejoin="round"
     stroke-width="2.2159"
     id="path46"
     style="fill:#800000;stroke:#800000" />
  <path
     d="m 136.31965,94.387337 c 0.3878,0.60872 1.034,0.7249 1.9401,0.35083 0.8214,-0.33916 1.5265,-0.98204 2.117,-1.9322 0.5935,-0.95483 1.0683,-2.0167 1.4243,-3.1882 0.3671,-1.1726 0.6501,-2.3444 0.8482,-3.5157 -0.7787,1.2499 -1.6236,2.0608 -2.5382,2.4387 -0.6988,0.28873 -1.2972,0.38579 -1.7961,0.29113 -0.4998,-0.095 -0.8962,-0.37906 -1.1893,-0.85354 -0.2856,-0.49086 -0.4409,-1.1639 -0.4658,-2.0211 -0.021,-0.7309 0.037,-1.5146 0.1735,-2.3516 0.137,-0.85239 0.3347,-1.8188 0.5934,-2.901 0.2691,-1.1041 0.5027,-2.0675 0.7004,-2.8879 0.2227,-0.96227 0.3285,-1.7232 0.3163,-2.2801 -0.015,-0.71067 -0.2269,-0.98286 -0.6342,-0.8142 -0.7332,0.30366 -1.3258,1.0442 -1.7757,2.2161 -0.4385,1.1494 -0.7497,2.3555 -0.9347,3.6164 -0.031,0.16191 -0.1042,0.26645 -0.2198,0.31428 l -0.3206,0.13265 c -0.1514,0.0627 -0.2309,-0.0132 -0.2386,-0.22769 v -0.10201 c 0.2461,-1.5076 0.6573,-2.9329 1.2351,-4.2729 0.5815,-1.3613 1.346,-2.2412 2.2902,-2.6323 0.6627,-0.2745 1.2267,-0.22321 1.6906,0.15288 0.4713,0.37104 0.7132,0.9875 0.7271,1.8468 0.01,0.43947 -0.062,0.93223 -0.2063,1.478 -0.076,0.31989 -0.2482,1.0184 -0.5162,2.091 -0.2664,1.0658 -0.4681,1.9355 -0.6058,2.6118 -0.1372,0.67359 -0.2477,1.3225 -0.3316,1.9468 -0.084,0.62204 -0.1189,1.2218 -0.106,1.7994 0.016,0.73779 0.1563,1.3067 0.419,1.7085 0.2621,0.40034 0.6649,0.48762 1.21,0.26236 1.099,-0.45412 2.0773,-1.6968 2.9421,-3.7454 l 2.0263,-11.594 c 0.063,-0.34427 0.2081,-0.67572 0.4349,-0.99424 0.2271,-0.33079 0.4723,-0.55086 0.7356,-0.65993 0.2269,-0.094 0.4217,-0.0798 0.5841,0.0423 0.1711,0.11841 0.2558,0.33144 0.2538,0.6389 -9e-4,0.1416 -0.01,0.23964 -0.029,0.29423 l -2.7139,14.866 c -0.2293,1.2189 -0.65,2.4608 -1.2603,3.7259 -0.6061,1.2565 -1.3376,2.3606 -2.1951,3.3158 -0.8451,0.95795 -1.7308,1.6271 -2.6599,2.0106 -0.4476,0.18473 -0.8938,0.26093 -1.3392,0.22856 -0.4457,-0.0221 -0.8107,-0.18636 -1.0951,-0.49336 -0.2854,-0.30784 -0.4379,-0.74476 -0.4568,-1.3118 -0.02,-0.57953 0.1045,-1.1416 0.373,-1.6857 0.2692,-0.54562 0.6403,-0.91659 1.1125,-1.1117 0.2834,-0.11706 0.5223,-0.10949 0.7166,0.0225 0.2029,0.13874 0.3086,0.38077 0.3169,0.72578 0.012,0.48982 -0.1264,0.97736 -0.4153,1.463 -0.2881,0.48437 -0.6316,0.80856 -1.031,0.97351 -0.017,-0.004 -0.034,-0.007 -0.053,-0.009 l -0.052,0.0214 z"
     id="path48"
     style="stroke:#800000;fill:#800000" />
  <path
     d="m 130.03965,98.557337 12.072,0.32273 -11.679,9.928003 c 0.8792,-1.8523 1.2859,-3.8048 1.2249,-5.5946 -0.06,-1.8134 -1.6184,-4.656103 -1.6184,-4.656103 z"
     stroke="#000000"
     stroke-linejoin="round"
     stroke-width="0.44318"
     id="path50"
     style="fill:#800000;stroke:#800000" />
  <path
     d="m 134.01965,102.21734 -94.358003,38.91"
     fill="#255e91"
     stroke="#000000"
     stroke-linecap="round"
     stroke-linejoin="round"
     stroke-width="2.2159"
     id="path52"
     style="fill:#800000;stroke:#800000" />
  <path
     fill="#e5d4b1"
     stroke="#000000"
     stroke-width="1.37369"
     d="m 387.99687,143.36983 c -10.0737,-1.37369 -26.10005,-10.53159 -28.38954,-11.90529 -2.28946,-1.37368 -12.82107,-12.82107 -18.31582,-21.5211 -5.49475,-8.70001 -10.5316,-19.231617 -12.36318,-25.184262 -1.83159,-5.952643 -3.66317,-11.905287 -4.12106,-15.110557 -0.4579,-3.205271 0.45789,-10.760551 1.83158,-13.965821 -3.20528,-2.289479 -9.61582,-2.747376 -12.36319,3.20527 -2.74738,5.952644 -5.03686,15.11056 -5.03686,21.063205 0,5.952648 10.07371,25.184265 3.66317,27.931635 -6.41053,2.74738 -7.78423,6.41055 -40.75272,-1.83158 -32.96849,-8.242118 -46.70537,-9.157911 -49.91064,-2.74737 -3.20527,6.41054 15.56846,9.15791 25.64217,10.9895 10.0737,1.83158 32.9781,10.36401 29.76322,14.65266 -1.99185,2.65671 -4.29277,2.05503 -9.48257,3.88662 -8.97979,3.16956 -8.84105,4.56339 -20.05171,8.40009 -11.18777,3.82892 -10.45971,14.75615 -6.9449,16.58957 3.51481,1.83342 6.41787,2.90397 21.23995,-5.5007 6.5708,-2.44517 14.55284,-4.06841 21.57376,-4.67878 7.02091,-0.61038 11.29537,25.64216 18.92666,29.61074 7.63129,3.96858 16.48379,3.66316 21.97854,3.66316 5.49475,0 8.54708,0.91625 11.59988,-0.61036 3.05279,-1.52663 11.60032,0.60991 16.17928,3.05233 0,0 17.70546,8.54753 19.23163,10.37912"
     id="path4" />
  <path
     fill="none"
     stroke="#897f6a"
     stroke-width="0.915797"
     d="m 281.53657,128.25882 c 15.568,-0.91534 21.06275,14.04228 24.72591,21.97945"
     id="path6" />
  <path
     fill="none"
     stroke="#897f6a"
     stroke-width="0.915797"
     d="m 314.35213,116.65849 c 0.15294,11.60033 5.03731,21.36907 11.59987,25.03132"
     id="path8" />
  <path
     fill="none"
     stroke="#897f6a"
     stroke-width="0.915797"
     d="m 283.97853,109.94299 c -3.66317,0.61037 -7.93671,9.15791 -6.10512,11.59988"
     id="path10" />
  <path
     fill="none"
     stroke="#897f6a"
     stroke-width="0.915797"
     d="m 264.44149,105.05861 c -2.44197,1.83159 -7.32633,6.10513 -6.10513,8.54755"
     id="path12" />
  <path
     fill="none"
     stroke="#897f6a"
     stroke-width="0.915797"
     d="m 242.4625,101.39545 c -3.0528,1.83158 -4.04506,7.09784 -4.65543,8.31859"
     id="path14" />
  <path
     fill="none"
     stroke="#897f6a"
     stroke-width="0.915797"
     d="m 276.04182,132.53282 c 3.66316,1.83158 5.49475,7.93624 4.27354,12.21024"
     id="path16" />
  <path
     fill="none"
     stroke="#897f6a"
     stroke-width="0.915797"
     d="m 266.34039,135.86264 c 3.05278,1.83158 3.31882,10.98628 2.09761,12.81787"
     id="path18" />
  <path
     fill="none"
     stroke="#897f6a"
     stroke-width="0.915797"
     d="m 254.68786,140.98969 c 3.95987,2.96946 4.39168,7.11295 2.33022,12.11867"
     id="path20" />
  <path
     fill="none"
     stroke="#897f6a"
     stroke-width="0.915797"
     d="m 308.78091,112.46187 c -1.83158,4.57896 -3.20527,8.24212 -2.74737,10.9895"
     id="path22" />
  <path
     fill="none"
     stroke="#897f6a"
     stroke-width="0.915797"
     d="m 309.2388,79.951275 c 5.47049,0.781628 1.22579,1.489077 11.4474,-0.457896"
     id="path24" />
  <path
     fill="none"
     stroke="#897f6a"
     stroke-width="0.915797"
     d="m 356.93643,135.5856 c -1.83158,5.49476 -3.66316,7.32588 -6.71595,9.15746"
     id="path26" />
  <path
     fill="#e5d4b1"
     stroke="#000000"
     stroke-width="1.37369"
     d="m 311.45228,175.72795 c 7.28283,-1.45656 12.51611,-2.44195 16.48424,-3.66316 3.96813,-1.22121 9.76783,-4.57942 11.29446,-7.63175 1.52662,-3.05233 0.30542,-3.66271 -0.61038,-5.79971 -0.91579,-2.137 -10.98904,-0.9158 -13.43145,0 -2.44242,0.91579 -4.57897,1.83158 -14.65267,3.35775 -10.0737,1.52616 -12.82108,2.28948 -18.01087,1.67864 -4.25477,-0.50093 0.61129,10.22619 2.74783,11.4474 2.13654,1.22121 2.44196,3.35821 16.17884,0.61083 z"
     id="path28-7" />
  <path
     fill="#e5d4b1"
     stroke="#000000"
     stroke-width="1.37369"
     d="m 319.22185,147.033 c 8.65285,-0.61038 12.98043,-1.22076 15.30975,1.22121 2.32931,2.44196 1.33064,4.88437 0.66532,5.49474 -0.66532,0.61038 -8.32043,3.96813 -12.31419,5.18934 -3.99422,1.2212 -4.65955,0.30542 -12.64662,2.137 -7.98755,1.83159 -8.65287,2.44195 -10.98309,3.35775 -2.32978,0.91579 -6.98886,0.61037 -11.31506,-2.74738 -4.32666,-3.35774 -3.66134,-9.15791 -3.32845,-10.98949 0.33289,-1.8316 0.66624,-5.80018 8.9862,-6.41054 8.31997,-0.61038 5.65684,2.13653 16.3075,2.44195 10.64974,0.30542 9.31864,0.30542 9.31864,0.30542 z"
     id="path30-5" />
  <path
     fill="none"
     stroke="#897f6a"
     stroke-width="0.915797"
     d="m 286.72544,150.08579 c -0.88053,7.92389 0.50781,8.31814 4.88438,11.59987"
     id="path32-1" />
  <path
     fill="none"
     stroke="#897f6a"
     stroke-width="0.915797"
     d="m 300.15736,150.23781 c 0,2.44196 0.61037,7.93671 0.61037,7.93671"
     id="path34" />
  <path
     fill="none"
     stroke="#897f6a"
     stroke-width="0.915797"
     d="m 315.26792,149.4745 c 0,1.22121 0.61083,6.10512 0.61083,7.93671"
     id="path36-4" />
  <path
     fill="none"
     stroke="#897f6a"
     stroke-width="0.915797"
     d="m 318.32026,163.21229 c 0,1.83158 3.05279,7.93671 3.05279,7.93671"
     id="path38-0" />
  <path
     fill="none"
     stroke="#897f6a"
     stroke-width="0.915797"
     d="m 303.51512,166.72252 c 0.61036,1.2212 1.22119,6.71549 3.05278,7.32632"
     id="path40-4" />
  <path
     fill="none"
     stroke="#897f6a"
     stroke-width="0.915797"
     d="m 359.98877,150.23827 c -3.05234,5.49475 -4.88392,19.5375 -7.93671,22.58983"
     id="path42-5" />
  <line
     fill="none"
     stroke="#963c96"
     stroke-width="4.12106"
     stroke-linecap="round"
     x1="322.28882"
     y1="45.838043"
     x2="321.98294"
     y2="23.40115"
     id="line44" />
  <polygon
     fill="#963c96"
     points="322.814,41.788 299.501,60.3 322.814,0 346.127,60.3 "
     id="polygon46"
     transform="matrix(0.45789576,0,0,0.45789576,174.1678,4.2666016)" />
  <line
     fill="none"
     stroke="#2828ff"
     stroke-width="4.12106"
     stroke-linecap="round"
     x1="214.91867"
     y1="100.63535"
     x2="192.89575"
     y2="96.334328"
     id="line48" />
  <polygon
     fill="#2828ff"
     points="40.9,201.067 54.24,227.68 0,192.5 63.799,182.044 "
     id="polygon50"
     transform="matrix(0.45789576,0,0,0.45789576,174.1678,4.2666016)" />
  <line
     fill="none"
     stroke="#e12828"
     stroke-width="4.12106"
     stroke-linecap="round"
     x1="232.03529"
     y1="157.77843"
     x2="217.93579"
     y2="163.61661"
     id="line52" />
  <polygon
     fill="#e12828"
     points="95.585,348.005 118.064,371.413 69.063,358.197 96.605,315.568 "
     id="polygon54"
     transform="matrix(0.45789576,0,0,0.45789576,174.1678,4.2666016)" />
  <g
     id="g62"
     transform="matrix(0.45789576,0,0,0.45789576,174.1678,4.2666016)">
    <text
       xml:space="preserve"
       style="font-size:40.7663px;line-height:1.25;font-family:Cambria;-inkscape-font-specification:'Cambria, Normal';stroke-width:2.1839"
       x="356.84613"
       y="66.175102"
       id="text16400"
       inkscape:transform-center-x="-11.287478"
       inkscape:transform-center-y="4.5855379"><tspan
         sodipodi:role="line"
         id="tspan16398"
         style="font-style:normal;font-variant:normal;font-weight:normal;font-stretch:normal;font-size:58.2374px;font-family:Cambria;-inkscape-font-specification:'Cambria, Normal';font-variant-ligatures:normal;font-variant-caps:normal;font-variant-numeric:normal;font-variant-east-asian:normal;fill:#800080;stroke-width:2.1839"
         x="356.84613"
         y="66.175102">z</tspan></text>
  </g>
  <g
     id="g66"
     transform="matrix(0.45789576,0,0,0.45789576,174.1678,4.2666016)">
    <text
       xml:space="preserve"
       style="font-size:40.7663px;line-height:1.25;font-family:Cambria;-inkscape-font-specification:'Cambria, Normal';stroke-width:2.1839"
       x="64.888741"
       y="169.40015"
       id="text5259"><tspan
         sodipodi:role="line"
         id="tspan5257"
         style="font-style:normal;font-variant:normal;font-weight:normal;font-stretch:normal;font-size:58.2374px;font-family:Cambria;-inkscape-font-specification:'Cambria, Normal';font-variant-ligatures:normal;font-variant-caps:normal;font-variant-numeric:normal;font-variant-east-asian:normal;fill:#0000ff;stroke-width:2.1839"
         x="64.888741"
         y="169.40015">x</tspan></text>
  </g>
  <g
     id="g70"
     transform="matrix(0.45789576,0,0,0.45789576,174.1678,4.2666016)" />
  <text
     xml:space="preserve"
     style="font-size:18.6667px;line-height:1.25;font-family:Cambria;-inkscape-font-specification:'Cambria, Normal'"
     x="201.76367"
     y="145.67902"
     id="text12791"><tspan
       sodipodi:role="line"
       id="tspan12789"
       x="201.76367"
       y="145.67902"
       style="font-style:normal;font-variant:normal;font-weight:normal;font-stretch:normal;font-size:26.6667px;font-family:Cambria;-inkscape-font-specification:'Cambria, Normal';font-variant-ligatures:normal;font-variant-caps:normal;font-variant-numeric:normal;font-variant-east-asian:normal;fill:#ff0000">y</tspan></text>
</svg>
