<?xml version="1.0" encoding="UTF-8" standalone="no"?>
<!-- Created with Inkscape (http://www.inkscape.org/) -->

<svg
   width="354.33069"
   height="354.33069"
   id="svg2607"
   sodipodi:version="0.32"
   inkscape:version="1.1.1 (3bf5ae0d25, 2021-09-20)"
   version="1.0"
   sodipodi:docname="CartesianPlane.svg"
   inkscape:output_extension="org.inkscape.output.svg.inkscape"
   xmlns:inkscape="http://www.inkscape.org/namespaces/inkscape"
   xmlns:sodipodi="http://sodipodi.sourceforge.net/DTD/sodipodi-0.dtd"
   xmlns="http://www.w3.org/2000/svg"
   xmlns:svg="http://www.w3.org/2000/svg"
   xmlns:rdf="http://www.w3.org/1999/02/22-rdf-syntax-ns#"
   xmlns:cc="http://creativecommons.org/ns#"
   xmlns:dc="http://purl.org/dc/elements/1.1/">
  <defs
     id="defs2609">
    <inkscape:perspective
       sodipodi:type="inkscape:persp3d"
       inkscape:vp_x="0 : 177.16534 : 1"
       inkscape:vp_y="0 : 1000 : 0"
       inkscape:vp_z="354.33069 : 177.16534 : 1"
       inkscape:persp3d-origin="177.16534 : 118.11023 : 1"
       id="perspective2607" />
    <marker
       inkscape:stockid="Arrow1Mend"
       orient="auto"
       refY="0.0"
       refX="0.0"
       id="Arrow1Mend"
       style="overflow:visible;">
      <path
         id="path3676"
         d="M 0.0,0.0 L 5.0,-5.0 L -12.5,0.0 L 5.0,5.0 L 0.0,0.0 z "
         style="fill-rule:evenodd;stroke:#000000;stroke-width:1.0pt;marker-start:none;"
         transform="scale(0.4) rotate(180) translate(10,0)" />
    </marker>
    <marker
       inkscape:stockid="Arrow1Sstart"
       orient="auto"
       refY="0.0"
       refX="0.0"
       id="Arrow1Sstart"
       style="overflow:visible">
      <path
         id="path3673"
         d="M 0.0,0.0 L 5.0,-5.0 L -12.5,0.0 L 5.0,5.0 L 0.0,0.0 z "
         style="fill-rule:evenodd;stroke:#000000;stroke-width:1.0pt;marker-start:none"
         transform="scale(0.2) translate(6,0)" />
    </marker>
    <marker
       inkscape:stockid="Arrow1Mstart"
       orient="auto"
       refY="0.0"
       refX="0.0"
       id="Arrow1Mstart"
       style="overflow:visible">
      <path
         id="path3679"
         d="M 0.0,0.0 L 5.0,-5.0 L -12.5,0.0 L 5.0,5.0 L 0.0,0.0 z "
         style="fill-rule:evenodd;stroke:#000000;stroke-width:1.0pt;marker-start:none"
         transform="scale(0.4) translate(10,0)" />
    </marker>
    <marker
       inkscape:stockid="Arrow2Mstart"
       orient="auto"
       refY="0.0"
       refX="0.0"
       id="Arrow2Mstart"
       style="overflow:visible">
      <path
         id="path3661"
         style="font-size:12.0;fill-rule:evenodd;stroke-width:0.62500000;stroke-linejoin:round"
         d="M 8.7185878,4.0337352 L -2.2072895,0.016013256 L 8.7185884,-4.0017078 C 6.9730900,-1.6296469 6.9831476,1.6157441 8.7185878,4.0337352 z "
         transform="scale(0.6) translate(0,0)" />
    </marker>
  </defs>
  <sodipodi:namedview
     id="base"
     pagecolor="#ffffff"
     bordercolor="#666666"
     borderopacity="1.0"
     inkscape:pageopacity="0.0"
     inkscape:pageshadow="2"
     inkscape:zoom="2.8284271"
     inkscape:cx="256.85654"
     inkscape:cy="116.14229"
     inkscape:document-units="mm"
     inkscape:current-layer="layer1"
     width="100mm"
     height="99.999997mm"
     units="mm"
     showgrid="false"
     showguides="false"
     inkscape:guide-bbox="true"
     grid_units="mm"
     inkscape:grid-points="true"
     gridtolerance="10000"
     inkscape:window-width="1600"
     inkscape:window-height="837"
     inkscape:window-x="-8"
     inkscape:window-y="-8"
     inkscape:window-maximized="1"
     inkscape:pagecheckerboard="0">
    <sodipodi:guide
       orientation="horizontal"
       position="177.16417"
       id="guide2617" />
    <sodipodi:guide
       orientation="vertical"
       position="177.16553"
       id="guide2619" />
    <inkscape:grid
       id="GridFromPre046Settings"
       type="xygrid"
       originx="0"
       originy="0"
       spacingx="3.7795276"
       spacingy="3.7795276"
       color="#0000ff"
       empcolor="#0000ff"
       opacity="0.2"
       empopacity="0.4"
       empspacing="5" />
  </sodipodi:namedview>
  <metadata
     id="metadata2612">
    <rdf:RDF>
      <cc:Work
         rdf:about="">
        <dc:format>image/svg+xml</dc:format>
        <dc:type
           rdf:resource="http://purl.org/dc/dcmitype/StillImage" />
      </cc:Work>
    </rdf:RDF>
  </metadata>
  <g
     inkscape:label="Layer 1"
     inkscape:groupmode="layer"
     id="layer1">
    <path
       style="fill:#c0c0c0;fill-rule:evenodd;stroke:#800000;stroke-width:0.88582677;stroke-linecap:butt;stroke-linejoin:miter;stroke-opacity:1;stroke-miterlimit:4;stroke-dasharray:none;fill-opacity:1"
       d="M 35.433071,141.73226 L 318.89764,141.73226"
       id="path22419" />
    <path
       style="fill:#c0c0c0;fill-rule:evenodd;stroke:#800000;stroke-width:0.88582677;stroke-linecap:butt;stroke-linejoin:miter;stroke-opacity:1;stroke-miterlimit:4;stroke-dasharray:none"
       d="M 318.89764,106.29919 L 35.433071,106.29919"
       id="path22421" />
    <path
       style="fill:#c0c0c0;fill-rule:evenodd;stroke:#800000;stroke-width:0.88582677;stroke-linecap:butt;stroke-linejoin:miter;stroke-opacity:1;stroke-miterlimit:4;stroke-dasharray:none"
       d="M 35.433071,70.866122 L 318.89764,70.866122"
       id="path22423" />
    <path
       style="fill:#c0c0c0;fill-rule:evenodd;stroke:#800000;stroke-width:0.88582677;stroke-linecap:butt;stroke-linejoin:miter;stroke-opacity:1;stroke-miterlimit:4;stroke-dasharray:none"
       d="M 318.89764,212.59841 L 35.433071,212.59841"
       id="path22425" />
    <path
       style="fill:#c0c0c0;fill-rule:evenodd;stroke:#800000;stroke-width:0.88582677;stroke-linecap:butt;stroke-linejoin:miter;stroke-opacity:1;stroke-miterlimit:4;stroke-dasharray:none"
       d="M 318.89764,248.03148 L 35.433071,248.03148"
       id="path22427" />
    <path
       style="fill:#c0c0c0;fill-rule:evenodd;stroke:#800000;stroke-width:0.88582677;stroke-linecap:butt;stroke-linejoin:miter;stroke-opacity:1;stroke-miterlimit:4;stroke-dasharray:none"
       d="M 35.433071,283.46455 L 318.89764,283.46455"
       id="path22429" />
    <path
       style="fill:#c0c0c0;fill-rule:evenodd;stroke:#800000;stroke-width:0.88582677;stroke-linecap:butt;stroke-linejoin:miter;stroke-opacity:1;stroke-miterlimit:4;stroke-dasharray:none"
       d="M 283.46457,318.89762 L 283.46457,35.433051"
       id="path22431" />
    <path
       style="fill:#c0c0c0;fill-rule:evenodd;stroke:#800000;stroke-width:0.88582677;stroke-linecap:butt;stroke-linejoin:miter;stroke-opacity:1;stroke-miterlimit:4;stroke-dasharray:none"
       d="M 248.0315,35.433051 L 248.0315,318.89762"
       id="path22433" />
    <path
       style="fill:#c0c0c0;fill-rule:evenodd;stroke:#800000;stroke-width:0.88582677;stroke-linecap:butt;stroke-linejoin:miter;stroke-opacity:1;stroke-miterlimit:4;stroke-dasharray:none"
       d="M 212.59843,318.89762 L 212.59843,35.433051"
       id="path22435" />
    <path
       style="fill:#c0c0c0;fill-rule:evenodd;stroke:#800000;stroke-width:0.88582677;stroke-linecap:butt;stroke-linejoin:miter;stroke-opacity:1;stroke-miterlimit:4;stroke-dasharray:none"
       d="M 141.73228,35.433051 L 141.73228,318.89762"
       id="path22437" />
    <path
       style="fill:#c0c0c0;fill-rule:evenodd;stroke:#800000;stroke-width:0.88582677;stroke-linecap:butt;stroke-linejoin:miter;stroke-opacity:1;stroke-miterlimit:4;stroke-dasharray:none"
       d="M 106.29921,318.89762 L 106.29921,35.433051"
       id="path22439" />
    <path
       style="fill:#c0c0c0;fill-rule:evenodd;stroke:#800000;stroke-width:0.88582677;stroke-linecap:butt;stroke-linejoin:miter;stroke-opacity:1;stroke-miterlimit:4;stroke-dasharray:none"
       d="M 70.866142,35.433051 L 70.866142,318.89762"
       id="path22441" />
    <path
       style="fill:#800000;fill-rule:evenodd;stroke:#800000;stroke-width:2.65748031;stroke-linecap:round;stroke-linejoin:round;stroke-opacity:1;stroke-miterlimit:4;stroke-dasharray:none;marker-start:none;marker-end:none;marker-mid:none"
       d="M 28.346457,177.16533 L 325.98425,177.16533"
       id="path2623"
       sodipodi:nodetypes="cc" />
    <path
       style="fill:#800000;fill-rule:evenodd;stroke:#800000;stroke-width:2.65748031;stroke-linecap:round;stroke-linejoin:round;stroke-opacity:1;stroke-miterlimit:4;stroke-dasharray:none;marker-start:none;marker-end:none"
       d="M 177.16535,325.98423 L 177.16535,28.346437"
       id="path2625"
       sodipodi:nodetypes="cc" />
    <path
       style="fill:#800000;fill-rule:evenodd;stroke:#800000;stroke-width:1.77165354;stroke-linecap:round;stroke-linejoin:miter;stroke-opacity:1;stroke-miterlimit:4;stroke-dasharray:none"
       d="M 141.73228,170.07872 L 141.73228,184.25195"
       id="path3698" />
    <path
       style="fill:#800000;fill-rule:evenodd;stroke:#800000;stroke-width:1.77165354;stroke-linecap:round;stroke-linejoin:miter;stroke-opacity:1;stroke-miterlimit:4;stroke-dasharray:none"
       d="M 106.29921,170.07872 L 106.29921,184.25195"
       id="path3700" />
    <path
       style="fill:#800000;fill-rule:evenodd;stroke:#800000;stroke-width:1.77165354;stroke-linecap:round;stroke-linejoin:miter;stroke-opacity:1;stroke-miterlimit:4;stroke-dasharray:none"
       d="M 70.866142,170.07872 L 70.866142,184.25195"
       id="path3702"
       sodipodi:nodetypes="cc" />
    <path
       style="fill:#800000;fill-rule:evenodd;stroke:#800000;stroke-width:1.77165354;stroke-linecap:round;stroke-linejoin:miter;stroke-opacity:1;stroke-miterlimit:4;stroke-dasharray:none"
       d="M 212.59843,170.07872 L 212.59843,184.25195"
       id="path3706" />
    <path
       style="fill:#800000;fill-rule:evenodd;stroke:#800000;stroke-width:1.77165354;stroke-linecap:round;stroke-linejoin:miter;stroke-opacity:1;stroke-miterlimit:4;stroke-dasharray:none"
       d="M 248.0315,170.07872 L 248.0315,184.25195"
       id="path3708" />
    <path
       style="fill:#800000;fill-rule:evenodd;stroke:#800000;stroke-width:1.77165354;stroke-linecap:round;stroke-linejoin:miter;stroke-opacity:1;stroke-miterlimit:4;stroke-dasharray:none"
       d="M 283.46457,170.07872 L 283.46457,184.25195"
       id="path3710" />
    <path
       style="fill:#800000;fill-rule:evenodd;stroke:#800000;stroke-width:1.77165354;stroke-linecap:round;stroke-linejoin:miter;stroke-opacity:1;stroke-miterlimit:4;stroke-dasharray:none"
       d="M 170.07874,141.73226 L 184.25197,141.73226"
       id="path4599" />
    <path
       style="fill:#800000;fill-rule:evenodd;stroke:#800000;stroke-width:1.77165354;stroke-linecap:round;stroke-linejoin:miter;stroke-opacity:1;stroke-miterlimit:4;stroke-dasharray:none"
       d="M 170.07874,106.29919 L 184.25197,106.29919"
       id="path4601" />
    <path
       style="fill:#800000;fill-rule:evenodd;stroke:#800000;stroke-width:1.77165354;stroke-linecap:round;stroke-linejoin:miter;stroke-opacity:1;stroke-miterlimit:4;stroke-dasharray:none"
       d="M 170.07874,70.866122 L 184.25197,70.866122"
       id="path4603" />
    <path
       style="fill:#800000;fill-rule:evenodd;stroke:#800000;stroke-width:1.77165354;stroke-linecap:round;stroke-linejoin:miter;stroke-opacity:1;stroke-miterlimit:4;stroke-dasharray:none"
       d="M 170.07874,212.59841 L 184.25197,212.59841"
       id="path4605" />
    <path
       style="fill:#800000;fill-rule:evenodd;stroke:#800000;stroke-width:1.77165354;stroke-linecap:round;stroke-linejoin:miter;stroke-opacity:1;stroke-miterlimit:4;stroke-dasharray:none"
       d="M 170.07874,248.03148 L 184.25197,248.03148"
       id="path4607" />
    <path
       style="fill:#800000;fill-rule:evenodd;stroke:#800000;stroke-width:1.77165354;stroke-linecap:round;stroke-linejoin:miter;stroke-opacity:1;stroke-miterlimit:4;stroke-dasharray:none"
       d="M 170.07874,283.46455 L 184.25197,283.46455"
       id="path4609" />
    <path
       style="fill:#800000;fill-rule:evenodd;stroke:#800000;stroke-width:2.65748031;stroke-linecap:round;stroke-linejoin:round;stroke-opacity:1;stroke-miterlimit:4;stroke-dasharray:none"
       d="M 170.07874,42.519665 L 177.16553,28.637567 L 184.25197,42.519665"
       id="path9048" />
    <path
       style="fill:#800000;fill-rule:evenodd;stroke:#800000;stroke-width:2.65748031;stroke-linecap:round;stroke-linejoin:round;stroke-opacity:1;stroke-miterlimit:4;stroke-dasharray:none"
       d="M 311.81102,170.07872 L 326.15873,177.16652 L 311.81102,184.25195"
       id="path9050" />
    <path
       sodipodi:type="arc"
       style="stroke-width:2.65748024;stroke-linecap:round;stroke-linejoin:round;stroke-miterlimit:4;stroke-dasharray:none;stroke:#800000;fill:#800000;fill-opacity:1"
       id="path9937"
       sodipodi:cx="177.16536"
       sodipodi:cy="177.16533"
       sodipodi:rx="3.5433071"
       sodipodi:ry="3.5433071"
       d="M 180.70867 177.16533 A 3.5433071 3.5433071 0 1 1  173.62205,177.16533 A 3.5433071 3.5433071 0 1 1  180.70867 177.16533 z" />
    <path
       style="font-size:12px;font-weight:bold;stroke:#800000;fill:#800000"
       d="M 188.11417,283.57294 L 195.62589,283.57294 L 195.62589,284.56903 L 188.11417,284.56903 L 188.11417,283.57294 z M 201.76651,283.11591 C 202.33291,283.237 202.77529,283.48896 203.09366,283.87177 C 203.41201,284.25458 203.57119,284.72724 203.5712,285.28973 C 203.57119,286.15302 203.27432,286.82098 202.68057,287.29364 C 202.08682,287.7663 201.24307,288.00262 200.14932,288.00262 C 199.78213,288.00262 199.4042,287.96649 199.01553,287.89423 C 198.62686,287.82196 198.22549,287.71356 197.81143,287.56903 L 197.81143,286.42645 C 198.13956,286.61786 198.49893,286.76239 198.88956,286.86005 C 199.28018,286.9577 199.68838,287.00653 200.11417,287.00653 C 200.85635,287.00653 201.42178,286.86005 201.81046,286.56708 C 202.19912,286.27411 202.39346,285.84833 202.39346,285.28973 C 202.39346,284.77411 202.21279,284.37079 201.85147,284.07977 C 201.49014,283.78876 200.98721,283.64325 200.34268,283.64325 L 199.32315,283.64325 L 199.32315,282.67059 L 200.38956,282.67059 C 200.97158,282.6706 201.4169,282.55439 201.72549,282.32196 C 202.03408,282.08954 202.18838,281.75458 202.18839,281.31708 C 202.18838,280.86787 202.0292,280.52314 201.71085,280.2829 C 201.39248,280.04267 200.93643,279.92255 200.34268,279.92255 C 200.01846,279.92255 199.6708,279.95771 199.29971,280.02802 C 198.92862,280.09834 198.52041,280.20771 198.0751,280.35614 L 198.0751,279.30145 C 198.52432,279.17646 198.94522,279.08271 199.3378,279.0202 C 199.73037,278.95771 200.10049,278.92646 200.44815,278.92645 C 201.34658,278.92646 202.05752,279.13056 202.58096,279.53876 C 203.10439,279.94697 203.36611,280.49873 203.36612,281.19403 C 203.36611,281.67841 203.22744,282.08759 202.9501,282.42157 C 202.67275,282.75556 202.27822,282.987 201.76651,283.11591 L 201.76651,283.11591 z"
       id="text22371" />
    <path
       style="font-size:12px;font-style:normal;font-weight:bold;fill:#800000;fill-opacity:1;stroke:#800000;stroke-width:1px;stroke-linecap:butt;stroke-linejoin:miter;stroke-opacity:1;font-family:sans"
       d="M 188.17404,248.22484 L 195.68576,248.22484 L 195.68576,249.22093 L 188.17404,249.22093 L 188.17404,248.22484 z M 199.25998,251.48851 L 203.39084,251.48851 L 203.39084,252.4846 L 197.83615,252.4846 L 197.83615,251.48851 C 198.28537,251.02367 198.89767,250.39965 199.67307,249.61644 C 200.44845,248.83324 200.93576,248.32836 201.13498,248.10179 C 201.51388,247.67601 201.77853,247.31566 201.92892,247.02074 C 202.07931,246.72582 202.15451,246.43578 202.15451,246.15062 C 202.15451,245.68578 201.99142,245.30688 201.66525,245.0139 C 201.33908,244.72094 200.91427,244.57446 200.39084,244.57445 C 200.01974,244.57446 199.62814,244.63891 199.21603,244.76781 C 198.80392,244.89672 198.36349,245.09203 197.89474,245.35374 L 197.89474,244.15843 C 198.37131,243.96703 198.81662,243.8225 199.23068,243.72484 C 199.64474,243.62719 200.02365,243.57836 200.3674,243.57835 C 201.27365,243.57836 201.9963,243.80493 202.53537,244.25804 C 203.07443,244.71117 203.34396,245.31664 203.34396,246.07445 C 203.34396,246.43383 203.27657,246.77465 203.14182,247.09691 C 203.00704,247.41918 202.76193,247.79906 202.40646,248.23656 C 202.3088,248.34984 201.99826,248.67699 201.47482,249.218 C 200.95138,249.75902 200.2131,250.51586 199.25998,251.48851 L 199.25998,251.48851 z"
       id="text22375" />
    <path
       style="font-size:12px;font-style:normal;font-weight:bold;fill:#800000;fill-opacity:1;stroke:#800000;stroke-width:1px;stroke-linecap:butt;stroke-linejoin:miter;stroke-opacity:1;font-family:sans"
       d="M 188,212.71266 L 195.51172,212.71266 L 195.51172,213.70876 L 188,213.70876 L 188,212.71266 z M 198.27148,215.97633 L 200.20508,215.97633 L 200.20508,209.30251 L 198.10156,209.72438 L 198.10156,208.64626 L 200.19336,208.22438 L 201.37695,208.22438 L 201.37695,215.97633 L 203.31055,215.97633 L 203.31055,216.97243 L 198.27148,216.97243 L 198.27148,215.97633 z"
       id="text22379" />
    <path
       style="font-size:12px;font-style:normal;font-weight:bold;fill:#800000;fill-opacity:1;stroke:#800000;stroke-width:1px;stroke-linecap:butt;stroke-linejoin:miter;stroke-opacity:1;font-family:sans"
       d="M 188.16992,145.11018 L 190.10352,145.11018 L 190.10352,138.43636 L 188,138.85823 L 188,137.78011 L 190.0918,137.35823 L 191.27539,137.35823 L 191.27539,145.11018 L 193.20898,145.11018 L 193.20898,146.10628 L 188.16992,146.10628 L 188.16992,145.11018 z"
       id="text22383" />
    <path
       style="font-size:12px;font-style:normal;font-weight:bold;fill:#800000;fill-opacity:1;stroke:#800000;stroke-width:1px;stroke-linecap:butt;stroke-linejoin:miter;stroke-opacity:1;font-family:sans"
       d="M 189.42383,109.75622 L 193.55469,109.75622 L 193.55469,110.75231 L 188,110.75231 L 188,109.75622 C 188.44922,109.29138 189.06152,108.66735 189.83691,107.88415 C 190.6123,107.10095 191.09961,106.59607 191.29883,106.3695 C 191.67773,105.94372 191.94238,105.58337 192.09277,105.28844 C 192.24316,104.99353 192.31835,104.70349 192.31836,104.41833 C 192.31835,103.95349 192.15527,103.57458 191.8291,103.28161 C 191.50293,102.98865 191.07812,102.84216 190.55469,102.84216 C 190.18359,102.84216 189.79199,102.90662 189.37988,103.03551 C 188.96777,103.16443 188.52734,103.35974 188.05859,103.62145 L 188.05859,102.42614 C 188.53515,102.23474 188.98047,102.09021 189.39453,101.99255 C 189.80859,101.8949 190.1875,101.84607 190.53125,101.84606 C 191.4375,101.84607 192.16015,102.07263 192.69922,102.52575 C 193.23828,102.97888 193.50781,103.58435 193.50781,104.34216 C 193.50781,104.70154 193.44042,105.04236 193.30566,105.36462 C 193.17089,105.68689 192.92578,106.06677 192.57031,106.50426 C 192.47265,106.61755 192.1621,106.9447 191.63867,107.48571 C 191.11523,108.02673 190.37695,108.78356 189.42383,109.75622 L 189.42383,109.75622 z"
       id="text22387" />
    <path
       style="font-size:12px;font-style:normal;font-weight:bold;fill:#800000;fill-opacity:1;stroke:#800000;stroke-width:1px;stroke-linecap:butt;stroke-linejoin:miter;stroke-opacity:1;font-family:sans"
       d="M 191.95508,70.517487 C 192.52148,70.638585 192.96386,70.890538 193.28223,71.273346 C 193.60058,71.656162 193.75976,72.128818 193.75977,72.691315 C 193.75976,73.554598 193.46288,74.222566 192.86914,74.695221 C 192.27539,75.167877 191.43164,75.404205 190.33789,75.404205 C 189.9707,75.404205 189.59277,75.368072 189.2041,75.295807 C 188.81543,75.223541 188.41406,75.115143 188,74.970612 L 188,73.828033 C 188.32812,74.019441 188.6875,74.163972 189.07812,74.261627 C 189.46875,74.359284 189.87695,74.408112 190.30273,74.408112 C 191.04492,74.408112 191.61035,74.261628 191.99902,73.968658 C 192.38769,73.675691 192.58203,73.24991 192.58203,72.691315 C 192.58203,72.175693 192.40136,71.772373 192.04004,71.481354 C 191.67871,71.190342 191.17578,71.044835 190.53125,71.04483 L 189.51172,71.04483 L 189.51172,70.072174 L 190.57812,70.072174 C 191.16015,70.072179 191.60546,69.955968 191.91406,69.723541 C 192.22265,69.491125 192.37695,69.156165 192.37695,68.718658 C 192.37695,68.269447 192.21777,67.92472 191.89941,67.684479 C 191.58105,67.444252 191.125,67.324135 190.53125,67.324127 C 190.20703,67.324135 189.85937,67.359291 189.48828,67.429596 C 189.11719,67.499916 188.70898,67.609291 188.26367,67.757721 L 188.26367,66.703033 C 188.71289,66.578042 189.13379,66.484292 189.52637,66.421783 C 189.91894,66.359292 190.28906,66.328042 190.63672,66.328033 C 191.53515,66.328042 192.24609,66.532144 192.76953,66.940338 C 193.29296,67.348549 193.55468,67.900306 193.55469,68.595612 C 193.55468,69.079993 193.41601,69.489172 193.13867,69.823151 C 192.86132,70.15714 192.46679,70.388585 191.95508,70.517487 L 191.95508,70.517487 z"
       id="text22391" />
    <path
       style="font-size:12px;font-style:normal;font-weight:bold;fill:#800000;fill-opacity:1;stroke:#800000;stroke-width:1px;stroke-linecap:butt;stroke-linejoin:miter;stroke-opacity:1;font-family:sans"
       d="M 63.137627,192.901 L 70.649345,192.901 L 70.649345,193.89709 L 63.137627,193.89709 L 63.137627,192.901 z M 76.78997,192.44397 C 77.356371,192.56507 77.798754,192.81702 78.117119,193.19983 C 78.435472,193.58265 78.594651,194.0553 78.594658,194.6178 C 78.594651,195.48108 78.297777,196.14905 77.704033,196.6217 C 77.110278,197.09436 76.266529,197.33069 75.172783,197.33069 C 74.805593,197.33069 74.427663,197.29456 74.038994,197.22229 C 73.65032,197.15002 73.248953,197.04163 72.834892,196.89709 L 72.834892,195.75452 C 73.163016,195.94592 73.522391,196.09046 73.913017,196.18811 C 74.30364,196.28577 74.711843,196.3346 75.137627,196.33459 C 75.87981,196.3346 76.445239,196.18811 76.833916,195.89514 C 77.222582,195.60217 77.416918,195.17639 77.416924,194.6178 C 77.416918,194.10218 77.236254,193.69886 76.874931,193.40784 C 76.513599,193.11683 76.010669,192.97132 75.366142,192.97131 L 74.346611,192.97131 L 74.346611,191.99866 L 75.413017,191.99866 C 75.995044,191.99866 76.440357,191.88245 76.748955,191.65002 C 77.057543,191.41761 77.21184,191.08265 77.211845,190.64514 C 77.21184,190.19593 77.052661,189.8512 76.734306,189.61096 C 76.415942,189.37074 75.959888,189.25062 75.366142,189.25061 C 75.04192,189.25062 74.694264,189.28577 74.323174,189.35608 C 73.952078,189.4264 73.543875,189.53577 73.098564,189.6842 L 73.098564,188.62952 C 73.547781,188.50453 73.968679,188.41078 74.361259,188.34827 C 74.753835,188.28578 75.123952,188.25453 75.471611,188.25452 C 76.370044,188.25453 77.080981,188.45863 77.604424,188.86682 C 78.127855,189.27503 78.389573,189.82679 78.38958,190.52209 C 78.389573,191.00648 78.250902,191.41566 77.973564,191.74963 C 77.696215,192.08362 77.301684,192.31507 76.78997,192.44397 L 76.78997,192.44397 z"
       id="text22395" />
    <path
       style="font-size:12px;font-style:normal;font-weight:bold;fill:#800000;fill-opacity:1;stroke:#800000;stroke-width:1px;stroke-linecap:butt;stroke-linejoin:miter;stroke-opacity:1;font-family:sans"
       d="M 98.690811,193.07092 L 106.20253,193.07092 L 106.20253,194.06702 L 98.690811,194.06702 L 98.690811,193.07092 z M 109.77675,196.33459 L 113.90761,196.33459 L 113.90761,197.33069 L 108.35292,197.33069 L 108.35292,196.33459 C 108.80214,195.86975 109.41444,195.24573 110.18983,194.46252 C 110.96522,193.67932 111.45253,193.17444 111.65175,192.94788 C 112.03065,192.5221 112.2953,192.16175 112.44569,191.86682 C 112.59608,191.57191 112.67127,191.28187 112.67128,190.9967 C 112.67127,190.53187 112.50819,190.15296 112.18202,189.85999 C 111.85585,189.56702 111.43104,189.42054 110.90761,189.42053 C 110.53651,189.42054 110.14491,189.48499 109.7328,189.61389 C 109.32069,189.74281 108.88026,189.93812 108.41151,190.19983 L 108.41151,189.00452 C 108.88808,188.81312 109.33339,188.66859 109.74745,188.57092 C 110.16151,188.47328 110.54042,188.42445 110.88417,188.42444 C 111.79042,188.42445 112.51307,188.65101 113.05214,189.10413 C 113.5912,189.55726 113.86073,190.16273 113.86073,190.92053 C 113.86073,191.27991 113.79334,191.62073 113.65858,191.94299 C 113.52381,192.26526 113.2787,192.64515 112.92323,193.08264 C 112.82557,193.19593 112.51502,193.52308 111.99159,194.06409 C 111.46815,194.60511 110.72987,195.36194 109.77675,196.33459 L 109.77675,196.33459 z"
       id="text22399" />
    <path
       style="font-size:12px;font-style:normal;font-weight:bold;fill:#800000;fill-opacity:1;stroke:#800000;stroke-width:1px;stroke-linecap:butt;stroke-linejoin:miter;stroke-opacity:1;font-family:sans"
       d="M 134.07701,193.07092 L 141.58873,193.07092 L 141.58873,194.06702 L 134.07701,194.06702 L 134.07701,193.07092 z M 144.3485,196.33459 L 146.28209,196.33459 L 146.28209,189.66077 L 144.17857,190.08264 L 144.17857,189.00452 L 146.27037,188.58264 L 147.45396,188.58264 L 147.45396,196.33459 L 149.38756,196.33459 L 149.38756,197.33069 L 144.3485,197.33069 L 144.3485,196.33459 z"
       id="text22403" />
    <path
       style="font-size:12px;font-style:normal;font-weight:bold;fill:#800000;fill-opacity:1;stroke:#800000;stroke-width:1px;stroke-linecap:butt;stroke-linejoin:miter;stroke-opacity:1;font-family:sans"
       d="M 210.16386,196.33459 L 212.09746,196.33459 L 212.09746,189.66077 L 209.99394,190.08264 L 209.99394,189.00452 L 212.08574,188.58264 L 213.26933,188.58264 L 213.26933,196.33459 L 215.20293,196.33459 L 215.20293,197.33069 L 210.16386,197.33069 L 210.16386,196.33459 z"
       id="text22407" />
    <path
       style="font-size:12px;font-style:normal;font-weight:bold;fill:#800000;fill-opacity:1;stroke:#800000;stroke-width:1px;stroke-linecap:butt;stroke-linejoin:miter;stroke-opacity:1;font-family:sans"
       d="M 246.67798,196.33459 L 250.80884,196.33459 L 250.80884,197.33069 L 245.25415,197.33069 L 245.25415,196.33459 C 245.70337,195.86975 246.31567,195.24573 247.09106,194.46252 C 247.86645,193.67932 248.35376,193.17444 248.55298,192.94788 C 248.93188,192.5221 249.19653,192.16175 249.34692,191.86682 C 249.49731,191.57191 249.5725,191.28187 249.57251,190.9967 C 249.5725,190.53187 249.40942,190.15296 249.08325,189.85999 C 248.75708,189.56702 248.33227,189.42054 247.80884,189.42053 C 247.43774,189.42054 247.04614,189.48499 246.63403,189.61389 C 246.22192,189.74281 245.78149,189.93812 245.31274,190.19983 L 245.31274,189.00452 C 245.78931,188.81312 246.23462,188.66859 246.64868,188.57092 C 247.06274,188.47328 247.44165,188.42445 247.7854,188.42444 C 248.69165,188.42445 249.4143,188.65101 249.95337,189.10413 C 250.49243,189.55726 250.76196,190.16273 250.76196,190.92053 C 250.76196,191.27991 250.69457,191.62073 250.55981,191.94299 C 250.42504,192.26526 250.17993,192.64515 249.82446,193.08264 C 249.7268,193.19593 249.41625,193.52308 248.89282,194.06409 C 248.36938,194.60511 247.6311,195.36194 246.67798,196.33459 L 246.67798,196.33459 z"
       id="text22411" />
    <path
       style="font-size:12px;font-style:normal;font-weight:bold;fill:#800000;fill-opacity:1;stroke:#800000;stroke-width:1px;stroke-linecap:butt;stroke-linejoin:miter;stroke-opacity:1;font-family:sans"
       d="M 284.53976,192.44397 C 285.10617,192.56507 285.54855,192.81702 285.86691,193.19983 C 286.18527,193.58265 286.34445,194.0553 286.34445,194.6178 C 286.34445,195.48108 286.04757,196.14905 285.45383,196.6217 C 284.86007,197.09436 284.01632,197.33069 282.92258,197.33069 C 282.55539,197.33069 282.17746,197.29456 281.78879,197.22229 C 281.40011,197.15002 280.99875,197.04163 280.58469,196.89709 L 280.58469,195.75452 C 280.91281,195.94592 281.27218,196.09046 281.66281,196.18811 C 282.05343,196.28577 282.46164,196.3346 282.88742,196.33459 C 283.6296,196.3346 284.19503,196.18811 284.58371,195.89514 C 284.97238,195.60217 285.16671,195.17639 285.16672,194.6178 C 285.16671,194.10218 284.98605,193.69886 284.62473,193.40784 C 284.26339,193.11683 283.76046,192.97132 283.11594,192.97131 L 282.09641,192.97131 L 282.09641,191.99866 L 283.16281,191.99866 C 283.74484,191.99866 284.19015,191.88245 284.49875,191.65002 C 284.80734,191.41761 284.96163,191.08265 284.96164,190.64514 C 284.96163,190.19593 284.80245,189.8512 284.4841,189.61096 C 284.16574,189.37074 283.70968,189.25062 283.11594,189.25061 C 282.79171,189.25062 282.44406,189.28577 282.07297,189.35608 C 281.70187,189.4264 281.29367,189.53577 280.84836,189.6842 L 280.84836,188.62952 C 281.29758,188.50453 281.71847,188.41078 282.11105,188.34827 C 282.50363,188.28578 282.87375,188.25453 283.22141,188.25452 C 284.11984,188.25453 284.83077,188.45863 285.35422,188.86682 C 285.87765,189.27503 286.13937,189.82679 286.13937,190.52209 C 286.13937,191.00648 286.0007,191.41566 285.72336,191.74963 C 285.44601,192.08362 285.05148,192.31507 284.53976,192.44397 L 284.53976,192.44397 z"
       id="text22415" />
    <path
       style="fill:#c000be;fill-opacity:1"
       d=""
       id="path3449"
       inkscape:connector-curvature="0" />
    <path
       style="fill:#800000;fill-opacity:1;stroke:#800000;stroke-width:0.688644"
       d="m 160.03107,201.28175 c -2.30747,-1.28986 -3.55196,-3.801 -3.55196,-7.16719 0,-3.74123 1.16109,-7.0143 3.32596,-9.37571 1.67086,-1.82254 3.30749,-2.46607 5.87379,-2.30961 1.80928,0.1103 2.31328,0.28482 3.34078,1.15672 3.61228,3.06529 3.5557,10.46757 -0.11583,15.15471 -2.3375,2.98409 -6.13477,4.0716 -8.87274,2.54108 z m 5.19999,-2.91933 c 2.30388,-1.44729 3.90424,-6.02999 3.35043,-9.59419 -0.42133,-2.71162 -2.96365,-4.25264 -5.1755,-3.13708 -1.5131,0.76313 -2.51306,2.00597 -3.22769,4.01165 -1.79214,5.02983 -0.48989,9.20165 2.87234,9.20165 0.7772,0 1.75839,-0.21692 2.18042,-0.48203 z"
       id="path3837"
       inkscape:connector-curvature="0" />
    <path
       d="M 162.63456,209.3036"
       style="fill:none;stroke:#3cb371;stroke-width:3.54331;stroke-linecap:round;stroke-linejoin:miter;stroke-miterlimit:4;stroke-dasharray:3.54331, 7.08661;stroke-dashoffset:0;stroke-opacity:1"
       id="path2942" />
    <path
       d="M 200.81832,205.76807"
       style="fill:none;stroke:#3cb371;stroke-width:3.54331;stroke-linecap:round;stroke-linejoin:miter;stroke-miterlimit:4;stroke-dasharray:3.54331, 7.08661;stroke-dashoffset:0;stroke-opacity:1"
       id="path2942-7" />
    <ellipse
       style="fill:#800000;stroke:#0000ff;stroke-width:1.30154"
       id="path940"
       cx="265.87216"
       cy="85.084831"
       rx="0.71180141"
       ry="0.72284991" />
    <path
       style="fill:none;stroke:#008000;stroke-width:1;stroke-linecap:butt;stroke-linejoin:miter;stroke-opacity:1;stroke-miterlimit:4;stroke-dasharray:2, 1;stroke-dashoffset:0"
       d="m 265.69537,176.95347 v -0.17678 c 0,0 0.17677,0.17678 0.17677,-91.747102 -88.56512,0 -88.65351,0 -88.65351,0"
       id="path975" />
    <text
       xml:space="preserve"
       style="font-size:18.6667px;line-height:1.25;font-family:Cambria;-inkscape-font-specification:'Cambria, Normal';fill:#800000"
       x="190.86121"
       y="47.830212"
       id="text2286"><tspan
         sodipodi:role="line"
         id="tspan2284"
         x="190.86121"
         y="47.830212"
         style="font-style:normal;font-variant:normal;font-weight:normal;font-stretch:normal;font-size:32px;font-family:Cambria;-inkscape-font-specification:'Cambria, Normal';font-variant-ligatures:normal;font-variant-caps:normal;font-variant-numeric:normal;font-variant-east-asian:normal">y</tspan></text>
    <text
       xml:space="preserve"
       style="font-size:18.6667px;line-height:1.25;font-family:Cambria;-inkscape-font-specification:'Cambria, Normal'"
       x="300"
       y="202.99998"
       id="text13400"><tspan
         sodipodi:role="line"
         id="tspan13398"
         x="300"
         y="202.99998"
         style="font-style:normal;font-variant:normal;font-weight:normal;font-stretch:normal;font-size:32px;font-family:Cambria;-inkscape-font-specification:'Cambria, Normal';font-variant-ligatures:normal;font-variant-caps:normal;font-variant-numeric:normal;font-variant-east-asian:normal;fill:#800000">x</tspan></text>
    <text
       xml:space="preserve"
       style="font-style:normal;font-variant:normal;font-weight:normal;font-stretch:normal;font-size:29.3333px;line-height:1.25;font-family:Cambria;-inkscape-font-specification:'Cambria, Normal';font-variant-ligatures:normal;font-variant-caps:normal;font-variant-numeric:normal;font-variant-east-asian:normal"
       x="268"
       y="87.732231"
       id="text17106"><tspan
         sodipodi:role="line"
         id="tspan17104"
         x="268"
         y="87.732231"
         style="font-style:normal;font-variant:normal;font-weight:normal;font-stretch:normal;font-size:21.3333px;font-family:Cambria;-inkscape-font-specification:'Cambria, Normal';font-variant-ligatures:normal;font-variant-caps:normal;font-variant-numeric:normal;font-variant-east-asian:normal;fill:#008000">(x,y)</tspan></text>
  </g>
</svg>
